<?xml version="1.0" encoding="utf-8"?>
<!-- Generator: Adobe Illustrator 16.0.0, SVG Export Plug-In . SVG Version: 6.00 Build 0)  -->
<!DOCTYPE svg PUBLIC "-//W3C//DTD SVG 1.1//EN" "http://www.w3.org/Graphics/SVG/1.1/DTD/svg11.dtd">
<svg version="1.1" id="圖層_1" xmlns="http://www.w3.org/2000/svg" xmlns:xlink="http://www.w3.org/1999/xlink" x="0px" y="0px"
	 width="2048px" height="512px" viewBox="0 0 2048 512" enable-background="new 0 0 2048 512" xml:space="preserve">
<g>
	<path fill="#00A0E9" d="M603.802,135.608h76.648c81.305,0,135.03,39.399,135.03,132.165s-53.726,134.672-131.448,134.672h-80.23
		V135.608z M676.51,350.868c42.98,0,73.424-19.699,73.424-83.096c0-63.396-30.444-80.946-73.424-80.946h-8.596v164.042H676.51z"/>
	<path fill="#00A0E9" d="M848.423,300.366c0-65.903,47.637-106.735,96.706-106.735c58.74,0,87.394,42.623,87.394,98.138
		c0,11.462-1.433,22.565-2.865,27.579H910.028c5.73,27.938,25.072,39.399,50.86,39.399c14.685,0,28.295-4.299,42.98-12.895
		l21.132,38.324c-21.132,15.043-49.07,23.281-72.709,23.281C893.552,407.459,848.423,368.061,848.423,300.366z M978.438,277.443
		c0-20.058-8.954-35.101-32.235-35.101c-17.55,0-32.952,11.103-37.25,35.101H978.438z"/>
	<path fill="#00A0E9" d="M1059.739,368.418l82.737-119.986h-73.425v-49.786h152.938v34.026l-82.737,119.987h85.603v49.785h-165.116
		V368.418z"/>
	<path fill="#00A0E9" d="M1265.324,135.608h64.112v105.66h1.074l75.574-105.66h70.201l-80.588,107.093l95.631,159.744h-69.843
		l-63.038-109.242l-29.012,39.399v69.843h-64.112V135.608z"/>
	<path fill="#00A0E9" d="M1477.355,135.608h67.694l30.444,121.778c7.88,28.653,13.252,55.874,20.773,85.244h1.791
		c7.88-29.37,13.252-56.591,20.774-85.244l30.086-121.778h65.187l-79.872,266.836h-77.006L1477.355,135.608z"/>
	<path fill="#00A0E9" d="M1741.678,135.608h69.127l42.264,115.331c5.372,15.401,9.671,32.235,14.685,48.353h1.791
		c5.373-16.117,9.671-32.951,14.686-48.353l40.831-115.331h69.484v266.836h-58.381v-91.333c0-26.505,5.014-66.262,8.596-92.408
		h-1.791l-22.206,63.754l-35.817,97.423h-35.101l-36.175-97.423l-21.49-63.754h-1.433c3.224,26.146,8.237,65.903,8.237,92.408
		v91.333h-57.307V135.608z"/>
</g>
<path fill="#00A0E9" d="M512,416c0,54.676-44.791,99-100.042,99H100.042C44.79,515,0,470.676,0,416V102C0,47.324,44.79,3,100.042,3
	h311.916C467.209,3,512,47.324,512,102V416z"/>
<circle fill="none" stroke="#FFFFFF" stroke-width="70" stroke-miterlimit="10" cx="256" cy="259" r="173"/>
<polygon fill="#00A0E9" points="195.561,173.517 120.721,67.667 233.953,44.676 245.063,152.666 "/>
<polygon fill="#00A0E9" points="242.833,388.995 233.137,481.274 131.266,435.419 176.432,371.54 "/>
<polygon fill="#FFFFFF" points="182.473,193.902 256.393,259.001 182.473,324.101 "/>
<polygon fill="#FFFFFF" points="329.527,324.099 255.606,259.001 329.527,193.9 "/>
</svg>
