<?xml version="1.0" encoding="utf-8"?>
<!-- Generator: Adobe Illustrator 16.0.0, SVG Export Plug-In . SVG Version: 6.00 Build 0)  -->
<!DOCTYPE svg PUBLIC "-//W3C//DTD SVG 1.1//EN" "http://www.w3.org/Graphics/SVG/1.1/DTD/svg11.dtd">
<svg version="1.1" id="圖層_1" xmlns="http://www.w3.org/2000/svg" xmlns:xlink="http://www.w3.org/1999/xlink" x="0px" y="0px"
	 width="2048px" height="512px" viewBox="0 0 2048 512" enable-background="new 0 0 2048 512" xml:space="preserve">
<text transform="matrix(1 0 0 1 572.999 402.4443)" fill="#00A0E9" font-family="'NotoSansCJKhk-Black-B5pc-H'" font-size="358.1637">DezKVM</text>
<path fill="#00A0E9" d="M512,416c0,54.676-44.791,99-100.042,99H100.042C44.79,515,0,470.676,0,416V102C0,47.324,44.79,3,100.042,3
	h311.916C467.209,3,512,47.324,512,102V416z"/>
<circle fill="none" stroke="#FFFFFF" stroke-width="70" stroke-miterlimit="10" cx="256" cy="259" r="173"/>
<polygon fill="#00A0E9" points="195.561,173.517 120.721,67.667 233.953,44.676 245.063,152.666 "/>
<polygon fill="#00A0E9" points="242.833,388.995 233.137,481.274 131.266,435.419 176.432,371.54 "/>
<polygon fill="#FFFFFF" points="182.473,193.902 256.393,259.001 182.473,324.101 "/>
<polygon fill="#FFFFFF" points="329.527,324.099 255.606,259.001 329.527,193.9 "/>
</svg>
